<svg width="40" height="40" viewBox="0 0 40 40" fill="none" xmlns="http://www.w3.org/2000/svg">
<path d="M30.2218 9.77654C29.8311 9.38584 29.3012 9.16634 28.7487 9.16634C28.1962 9.16634 27.6663 9.38584 27.2756 9.77654C26.8849 10.1672 26.6654 10.6971 26.6654 11.2497C26.6654 11.8022 26.8849 12.3321 27.2756 12.7228C27.6663 13.1135 28.1962 13.333 28.7487 13.333C29.3012 13.333 29.8311 13.1135 30.2218 12.7228C30.6125 12.3321 30.832 11.8022 30.832 11.2497C30.832 10.6971 30.6125 10.1672 30.2218 9.77654Z" fill="#2269D3"/>
<path fill-rule="evenodd" clip-rule="evenodd" d="M25.8913 14.1071C24.3285 12.5443 22.2088 11.6663 19.9987 11.6663C17.7886 11.6663 15.6689 12.5443 14.1061 14.1071C12.5433 15.6699 11.6654 17.7895 11.6654 19.9997C11.6654 22.2098 12.5433 24.3294 14.1061 25.8922C15.6689 27.455 17.7886 28.333 19.9987 28.333C22.2088 28.333 24.3285 27.455 25.8913 25.8922C27.4541 24.3294 28.332 22.2098 28.332 19.9997C28.332 17.7895 27.4541 15.6699 25.8913 14.1071ZM16.4632 16.4641C17.4008 15.5265 18.6726 14.9997 19.9987 14.9997C21.3248 14.9997 22.5966 15.5265 23.5342 16.4641C24.4719 17.4018 24.9987 18.6736 24.9987 19.9997C24.9987 21.3258 24.4719 22.5975 23.5342 23.5352C22.5966 24.4729 21.3248 24.9997 19.9987 24.9997C18.6726 24.9997 17.4008 24.4729 16.4632 23.5352C15.5255 22.5975 14.9987 21.3258 14.9987 19.9997C14.9987 18.6736 15.5255 17.4018 16.4632 16.4641Z" fill="#2269D3"/>
<path fill-rule="evenodd" clip-rule="evenodd" d="M26.9987 3.33301H12.9987C10.4349 3.33301 7.97618 4.35146 6.16333 6.16431C4.35048 7.97716 3.33203 10.4359 3.33203 12.9997V26.9997C3.33203 32.333 7.66537 36.6663 12.9987 36.6663H26.9987C29.5625 36.6663 32.0212 35.6479 33.8341 33.835C35.6469 32.0222 36.6654 29.5634 36.6654 26.9997V12.9997C36.6654 7.66634 32.332 3.33301 26.9987 3.33301ZM8.42272 8.4237C9.54794 7.29848 11.0741 6.66634 12.6654 6.66634H27.332C30.6487 6.66634 33.332 9.34967 33.332 12.6663V27.333C33.332 28.9243 32.6999 30.4504 31.5747 31.5757C30.4495 32.7009 28.9233 33.333 27.332 33.333H12.6654C9.3487 33.333 6.66536 30.6497 6.66536 27.333V12.6663C6.66536 11.075 7.29751 9.54892 8.42272 8.4237Z" fill="#2269D3"/>
</svg>
