<svg width="40" height="40" viewBox="0 0 40 40" fill="none" xmlns="http://www.w3.org/2000/svg">
<path d="M25.9003 5C25.8998 6.72905 26.5276 8.39937 27.6669 9.7C29.9336 12.3167 33.0669 12.1667 33.0669 12.1667V17.3167C30.4959 17.3211 27.9886 16.5164 25.9003 15.0167V25.5C25.9003 30.75 21.6503 35 16.4169 35C11.5336 35 6.93359 31.05 6.93359 25.5C6.93359 19.8 11.9669 15.3333 17.7169 16.1V21.3667C14.8669 20.4833 12.1003 22.6333 12.1003 25.5C12.1003 27.9 14.0669 29.8333 16.4336 29.8333C17.5527 29.8332 18.628 29.3988 19.4332 28.6216C20.2384 27.8444 20.7105 26.785 20.7503 25.6667V5H25.9003Z" fill="#2269D3"/>
</svg>
